<?xml version="1.0" encoding="UTF-8" standalone="no"?>
<!-- Created with Inkscape (http://www.inkscape.org/) -->

<svg
   xmlns:dc="http://purl.org/dc/elements/1.1/"
   xmlns:cc="http://creativecommons.org/ns#"
   xmlns:rdf="http://www.w3.org/1999/02/22-rdf-syntax-ns#"
   xmlns:svg="http://www.w3.org/2000/svg"
   xmlns="http://www.w3.org/2000/svg"
   xmlns:sodipodi="http://sodipodi.sourceforge.net/DTD/sodipodi-0.dtd"
   xmlns:inkscape="http://www.inkscape.org/namespaces/inkscape"
   version="1.1"
   width="20"
   height="20"
   id="svg2"
   inkscape:version="0.92.4 (5da689c313, 2019-01-14)"
   sodipodi:docname="buttons.svg">
  <sodipodi:namedview
     pagecolor="#ffffff"
     bordercolor="#666666"
     borderopacity="1"
     objecttolerance="10"
     gridtolerance="10"
     guidetolerance="10"
     inkscape:pageopacity="0"
     inkscape:pageshadow="2"
     inkscape:window-width="1920"
     inkscape:window-height="1017"
     id="namedview41"
     showgrid="false"
     inkscape:object-nodes="true"
     fit-margin-top="0"
     fit-margin-left="0"
     fit-margin-right="0"
     fit-margin-bottom="0"
     inkscape:zoom="1.9243043"
     inkscape:cx="-193.08192"
     inkscape:cy="-69.31433"
     inkscape:window-x="3832"
     inkscape:window-y="515"
     inkscape:window-maximized="1"
     inkscape:current-layer="svg2" />
  <defs
     id="defs4" />
  <metadata
     id="metadata7">
    <rdf:RDF>
      <cc:Work
         rdf:about="">
        <dc:format>image/svg+xml</dc:format>
        <dc:type
           rdf:resource="http://purl.org/dc/dcmitype/StillImage" />
        <dc:title></dc:title>
      </cc:Work>
    </rdf:RDF>
  </metadata>
  <circle
     id="path2993"
     style="color:#000000;display:inline;overflow:visible;visibility:visible;fill:#e0ecec;fill-opacity:1;fill-rule:nonzero;stroke:none;stroke-width:1;marker:none;enable-background:accumulate"
     cx="10"
     cy="10"
     r="10" />
  <path
     style="color:#000000;display:inline;overflow:visible;visibility:visible;fill:#434e52;fill-opacity:1;fill-rule:nonzero;stroke:none;stroke-width:1;marker:none;enable-background:accumulate"
     d="m 5.8750151,4.1247996 c -0.4483254,0 -0.8752202,0.18772 -1.21875,0.53125 -0.6870603,0.68706 -0.6870603,1.78169 0,2.46875 l 2.875,2.875 -2.875,2.8750004 c -0.6870596,0.68706 -0.6870603,1.78169 0,2.46875 0.6870603,0.68706 1.7816904,0.68706 2.46875,0 l 2.8749999,-2.875 2.875,2.875 c 0.68706,0.68706 1.78169,0.68706 2.46875,0 0.68706,-0.68706 0.68706,-1.78169 0,-2.46875 l -2.875,-2.8750004 2.875,-2.875 c 0.68706,-0.68706 0.68706,-1.78169 0,-2.46875 -0.68706,-0.68706 -1.78169,-0.68706 -2.46875,0 l -2.875,2.875 -2.8749999,-2.875 c -0.3435302,-0.34353 -0.8016746,-0.53125 -1.25,-0.53125 z"
     id="rect3002"
     inkscape:connector-curvature="0" />
</svg>
